<mxfile host="65bd71144e">
    <diagram id="7Bl4FihZvyI9DpDHU34z" name="Page-1">
        <mxGraphModel dx="342" dy="549" grid="1" gridSize="10" guides="1" tooltips="1" connect="1" arrows="1" fold="1" page="1" pageScale="1" pageWidth="827" pageHeight="1169" math="0" shadow="0">
            <root>
                <mxCell id="0"/>
                <mxCell id="1" parent="0"/>
                <mxCell id="2" value="" style="rounded=1;whiteSpace=wrap;html=1;direction=west;glass=0;shadow=0;arcSize=12;" vertex="1" parent="1">
                    <mxGeometry x="440" y="130" width="160" height="410" as="geometry"/>
                </mxCell>
                <mxCell id="23" value="" style="rounded=1;whiteSpace=wrap;html=1;direction=west;glass=0;shadow=0;arcSize=12;" vertex="1" parent="1">
                    <mxGeometry x="240" y="130" width="160" height="350" as="geometry"/>
                </mxCell>
                <mxCell id="27" value="" style="rounded=1;whiteSpace=wrap;html=1;direction=west;glass=0;shadow=0;arcSize=12;" vertex="1" parent="1">
                    <mxGeometry x="40" y="130" width="160" height="350" as="geometry"/>
                </mxCell>
                <mxCell id="28" value="" style="endArrow=none;html=1;rounded=0;entryX=0;entryY=0.5;entryDx=0;entryDy=0;exitX=1;exitY=0.5;exitDx=0;exitDy=0;" edge="1" parent="1" source="27" target="27">
                    <mxGeometry width="50" height="50" relative="1" as="geometry">
                        <mxPoint x="30" y="158.75499999999994" as="sourcePoint"/>
                        <mxPoint x="232" y="158.75499999999994" as="targetPoint"/>
                        <Array as="points"/>
                    </mxGeometry>
                </mxCell>
                <mxCell id="5" value="User" style="text;html=1;strokeColor=none;fillColor=none;align=center;verticalAlign=middle;whiteSpace=wrap;rounded=0;" vertex="1" parent="1">
                    <mxGeometry x="310" y="138.75" width="80" height="30" as="geometry"/>
                </mxCell>
                <mxCell id="6" value="" style="verticalLabelPosition=bottom;sketch=0;html=1;fillColor=#282828;strokeColor=none;verticalAlign=top;pointerEvents=1;align=center;shape=mxgraph.cisco_safe.people_places_things_icons.icon9;" vertex="1" parent="1">
                    <mxGeometry x="270" y="138.75" width="30" height="28.75" as="geometry"/>
                </mxCell>
                <mxCell id="8" value="" style="shape=image;html=1;verticalAlign=top;verticalLabelPosition=bottom;labelBackgroundColor=#ffffff;imageAspect=0;aspect=fixed;image=https://cdn2.iconfinder.com/data/icons/circle-icons-1/64/scooter-128.png" vertex="1" parent="1">
                    <mxGeometry x="60" y="136" width="32" height="32" as="geometry"/>
                </mxCell>
                <mxCell id="10" value="E-Scooty" style="text;html=1;strokeColor=none;fillColor=none;align=center;verticalAlign=middle;whiteSpace=wrap;rounded=0;" vertex="1" parent="1">
                    <mxGeometry x="95.5" y="132" width="80" height="40" as="geometry"/>
                </mxCell>
                <mxCell id="19" value="" style="endArrow=none;html=1;rounded=0;entryX=-0.001;entryY=0.581;entryDx=0;entryDy=0;exitX=0.999;exitY=0.578;exitDx=0;exitDy=0;entryPerimeter=0;exitPerimeter=0;" edge="1" parent="1" source="2" target="2">
                    <mxGeometry width="50" height="50" relative="1" as="geometry">
                        <mxPoint x="430" y="158.75499999999994" as="sourcePoint"/>
                        <mxPoint x="632" y="158.75499999999994" as="targetPoint"/>
                    </mxGeometry>
                </mxCell>
                <mxCell id="20" value="Electric Scooter Hire app system" style="text;html=1;strokeColor=none;fillColor=none;align=center;verticalAlign=middle;whiteSpace=wrap;rounded=0;" vertex="1" parent="1">
                    <mxGeometry x="490" y="138.75000000000003" width="90" height="30" as="geometry"/>
                </mxCell>
                <mxCell id="21" value="" style="aspect=fixed;html=1;points=[];align=center;image;fontSize=12;image=img/lib/azure2/integration/App_Configuration.svg;rounded=1;shadow=0;glass=0;sketch=0;" vertex="1" parent="1">
                    <mxGeometry x="460" y="141.38" width="20" height="21.25" as="geometry"/>
                </mxCell>
                <mxCell id="24" value="" style="endArrow=none;html=1;rounded=0;entryX=0;entryY=0.5;entryDx=0;entryDy=0;exitX=1;exitY=0.5;exitDx=0;exitDy=0;" edge="1" parent="1" source="23" target="23">
                    <mxGeometry width="50" height="50" relative="1" as="geometry">
                        <mxPoint x="240" y="158.75499999999994" as="sourcePoint"/>
                        <mxPoint x="442" y="158.75499999999994" as="targetPoint"/>
                    </mxGeometry>
                </mxCell>
                <mxCell id="31" value="station:&amp;nbsp;&lt;span style=&quot;white-space: pre;&quot;&gt;&#9;&lt;span style=&quot;white-space: pre;&quot;&gt;&#9;&lt;/span&gt;&lt;/span&gt;&lt;font color=&quot;#007fff&quot;&gt;string&lt;/font&gt;" style="text;html=1;strokeColor=none;fillColor=none;align=left;verticalAlign=middle;whiteSpace=wrap;rounded=0;shadow=0;glass=0;sketch=0;" vertex="1" parent="1">
                    <mxGeometry x="60" y="180" width="120" height="19" as="geometry"/>
                </mxCell>
                <mxCell id="32" value="user:&lt;span style=&quot;white-space: pre;&quot;&gt;&#9;&lt;span style=&quot;white-space: pre;&quot;&gt;&#9;&lt;/span&gt;&lt;/span&gt;User" style="text;html=1;strokeColor=none;fillColor=none;align=left;verticalAlign=middle;whiteSpace=wrap;rounded=0;shadow=0;glass=0;sketch=0;" vertex="1" parent="1">
                    <mxGeometry x="60" y="200" width="120" height="19" as="geometry"/>
                </mxCell>
                <mxCell id="34" value="serial:&lt;span style=&quot;white-space: pre;&quot;&gt;&#9;&lt;span style=&quot;white-space: pre;&quot;&gt;&#9;&lt;/span&gt;&lt;/span&gt;number" style="text;html=1;strokeColor=none;fillColor=none;align=left;verticalAlign=middle;whiteSpace=wrap;rounded=0;shadow=0;glass=0;sketch=0;" vertex="1" parent="1">
                    <mxGeometry x="60" y="220" width="120" height="19" as="geometry"/>
                </mxCell>
                <mxCell id="35" value="nextSerial:&lt;span style=&quot;white-space: pre;&quot;&gt;&#9;&lt;/span&gt;number" style="text;html=1;strokeColor=none;fillColor=none;align=left;verticalAlign=middle;whiteSpace=wrap;rounded=0;shadow=0;glass=0;sketch=0;" vertex="1" parent="1">
                    <mxGeometry x="60" y="240" width="120" height="19" as="geometry"/>
                </mxCell>
                <mxCell id="36" value="&lt;div style=&quot;&quot;&gt;&lt;span style=&quot;background-color: initial;&quot;&gt;charge:&lt;span style=&quot;white-space: pre;&quot;&gt;&#9;&lt;/span&gt;&lt;span style=&quot;white-space: pre;&quot;&gt;&#9;&lt;/span&gt;number&lt;/span&gt;&lt;/div&gt;" style="text;html=1;strokeColor=none;fillColor=none;align=left;verticalAlign=middle;whiteSpace=wrap;rounded=0;shadow=0;glass=0;sketch=0;" vertex="1" parent="1">
                    <mxGeometry x="60" y="259" width="120" height="19" as="geometry"/>
                </mxCell>
                <mxCell id="37" value="isBroken:&lt;span style=&quot;white-space: pre;&quot;&gt;&#9;&lt;span style=&quot;white-space: pre;&quot;&gt;&#9;&lt;/span&gt;&lt;/span&gt;&lt;font color=&quot;#007fff&quot;&gt;boolean&lt;/font&gt;" style="text;html=1;strokeColor=none;fillColor=none;align=left;verticalAlign=middle;whiteSpace=wrap;rounded=0;shadow=0;glass=0;sketch=0;" vertex="1" parent="1">
                    <mxGeometry x="60" y="278" width="120" height="19" as="geometry"/>
                </mxCell>
                <mxCell id="40" value="rent()" style="text;html=1;strokeColor=none;fillColor=none;align=center;verticalAlign=middle;whiteSpace=wrap;rounded=0;shadow=0;glass=0;sketch=0;" vertex="1" parent="1">
                    <mxGeometry x="66" y="311" width="108" height="19" as="geometry"/>
                </mxCell>
                <mxCell id="41" value="dock(station: string)" style="text;html=1;strokeColor=none;fillColor=none;align=center;verticalAlign=middle;whiteSpace=wrap;rounded=0;shadow=0;glass=0;sketch=0;" vertex="1" parent="1">
                    <mxGeometry x="66" y="340" width="108" height="19" as="geometry"/>
                </mxCell>
                <mxCell id="42" value="recharge()" style="text;html=1;strokeColor=none;fillColor=none;align=center;verticalAlign=middle;whiteSpace=wrap;rounded=0;shadow=0;glass=0;sketch=0;" vertex="1" parent="1">
                    <mxGeometry x="66" y="370" width="108" height="19" as="geometry"/>
                </mxCell>
                <mxCell id="43" value="requestRepair()" style="text;html=1;strokeColor=none;fillColor=none;align=center;verticalAlign=middle;whiteSpace=wrap;rounded=0;shadow=0;glass=0;sketch=0;" vertex="1" parent="1">
                    <mxGeometry x="66" y="400" width="108" height="19" as="geometry"/>
                </mxCell>
                <mxCell id="46" value="username:&lt;span style=&quot;white-space: pre;&quot;&gt;&#9;&lt;/span&gt;&lt;font color=&quot;#007fff&quot;&gt;string&lt;/font&gt;" style="text;html=1;strokeColor=none;fillColor=none;align=left;verticalAlign=middle;whiteSpace=wrap;rounded=0;shadow=0;glass=0;sketch=0;" vertex="1" parent="1">
                    <mxGeometry x="260" y="180" width="120" height="19" as="geometry"/>
                </mxCell>
                <mxCell id="47" value="password:&amp;nbsp;&lt;span style=&quot;white-space: pre;&quot;&gt;&lt;span style=&quot;white-space: pre;&quot;&gt;&#9;&lt;/span&gt;&lt;/span&gt;&lt;font color=&quot;#007fff&quot;&gt;string&lt;/font&gt;" style="text;html=1;strokeColor=none;fillColor=none;align=left;verticalAlign=middle;whiteSpace=wrap;rounded=0;shadow=0;glass=0;sketch=0;" vertex="1" parent="1">
                    <mxGeometry x="260" y="200" width="120" height="19" as="geometry"/>
                </mxCell>
                <mxCell id="48" value="age:&amp;nbsp;&lt;span style=&quot;white-space: pre;&quot;&gt;&#9;&lt;/span&gt;&lt;span style=&quot;white-space: pre;&quot;&gt;&#9;&lt;/span&gt;&lt;span style=&quot;white-space: pre;&quot;&gt;&lt;font color=&quot;#ffffff&quot;&gt;number&lt;/font&gt;&lt;/span&gt;" style="text;html=1;strokeColor=none;fillColor=none;align=left;verticalAlign=middle;whiteSpace=wrap;rounded=0;shadow=0;glass=0;sketch=0;" vertex="1" parent="1">
                    <mxGeometry x="260" y="220" width="120" height="19" as="geometry"/>
                </mxCell>
                <mxCell id="49" value="loggedIn:&lt;span style=&quot;white-space: pre;&quot;&gt;&#9;&lt;/span&gt;&lt;span style=&quot;white-space: pre;&quot;&gt;&#9;&lt;/span&gt;&lt;font color=&quot;#007fff&quot;&gt;boolean&lt;/font&gt;" style="text;html=1;strokeColor=none;fillColor=none;align=left;verticalAlign=middle;whiteSpace=wrap;rounded=0;shadow=0;glass=0;sketch=0;" vertex="1" parent="1">
                    <mxGeometry x="260" y="240" width="120" height="19" as="geometry"/>
                </mxCell>
                <mxCell id="51" value="login(password: &lt;font color=&quot;#007fff&quot;&gt;string&lt;/font&gt;)" style="text;html=1;strokeColor=none;fillColor=none;align=center;verticalAlign=middle;whiteSpace=wrap;rounded=0;shadow=0;glass=0;sketch=0;" vertex="1" parent="1">
                    <mxGeometry x="255" y="311" width="130" height="19" as="geometry"/>
                </mxCell>
                <mxCell id="52" value="logout()" style="text;html=1;strokeColor=none;fillColor=none;align=center;verticalAlign=middle;whiteSpace=wrap;rounded=0;shadow=0;glass=0;sketch=0;" vertex="1" parent="1">
                    <mxGeometry x="260" y="340" width="120" height="19" as="geometry"/>
                </mxCell>
                <mxCell id="55" value="stations: &lt;span style=&quot;white-space: pre;&quot;&gt;&#9;&lt;span style=&quot;white-space: pre;&quot;&gt;&#9;&lt;/span&gt; &lt;/span&gt;&amp;nbsp;&amp;nbsp;&lt;font color=&quot;#007fff&quot;&gt;object&lt;/font&gt;" style="text;html=1;strokeColor=none;fillColor=none;align=left;verticalAlign=middle;whiteSpace=wrap;rounded=0;shadow=0;glass=0;sketch=0;" vertex="1" parent="1">
                    <mxGeometry x="450" y="180" width="130" height="19" as="geometry"/>
                </mxCell>
                <mxCell id="56" value="registeredUsers:&amp;nbsp;&lt;font color=&quot;#007fff&quot;&gt;object&lt;/font&gt;" style="text;html=1;strokeColor=none;fillColor=none;align=left;verticalAlign=middle;whiteSpace=wrap;rounded=0;shadow=0;glass=0;sketch=0;" vertex="1" parent="1">
                    <mxGeometry x="450" y="200" width="130" height="19" as="geometry"/>
                </mxCell>
                <mxCell id="57" value="registerUser(&lt;font style=&quot;font-size: 10px;&quot;&gt;username: &lt;font style=&quot;font-size: 10px;&quot; color=&quot;#007fff&quot;&gt;string&lt;/font&gt;, password: &lt;font style=&quot;font-size: 10px;&quot; color=&quot;#007fff&quot;&gt;string&lt;/font&gt;, age: number&lt;/font&gt;)" style="text;html=1;strokeColor=none;fillColor=none;align=left;verticalAlign=middle;whiteSpace=wrap;rounded=0;shadow=0;glass=0;sketch=0;" vertex="1" parent="1">
                    <mxGeometry x="455" y="311" width="130" height="49" as="geometry"/>
                </mxCell>
                <mxCell id="58" value="loginUser(&lt;font style=&quot;font-size: 10px;&quot;&gt;username: &lt;font style=&quot;font-size: 10px;&quot; color=&quot;#007fff&quot;&gt;string&lt;/font&gt;, password: &lt;font style=&quot;font-size: 10px;&quot; color=&quot;#007fff&quot;&gt;string&lt;/font&gt;&lt;/font&gt;)" style="text;html=1;strokeColor=none;fillColor=none;align=left;verticalAlign=middle;whiteSpace=wrap;rounded=0;shadow=0;glass=0;sketch=0;" vertex="1" parent="1">
                    <mxGeometry x="455" y="360" width="130" height="30" as="geometry"/>
                </mxCell>
                <mxCell id="59" value="logoutUser(&lt;font style=&quot;font-size: 10px;&quot;&gt;username: &lt;font style=&quot;font-size: 10px;&quot; color=&quot;#007fff&quot;&gt;string&lt;/font&gt;&lt;/font&gt;)" style="text;html=1;strokeColor=none;fillColor=none;align=left;verticalAlign=middle;whiteSpace=wrap;rounded=0;shadow=0;glass=0;sketch=0;" vertex="1" parent="1">
                    <mxGeometry x="455" y="390" width="130" height="30" as="geometry"/>
                </mxCell>
                <mxCell id="60" value="createScooter(&lt;font style=&quot;font-size: 10px;&quot;&gt;station: &lt;font style=&quot;font-size: 10px;&quot; color=&quot;#007fff&quot;&gt;string&lt;/font&gt;&lt;/font&gt;)" style="text;html=1;strokeColor=none;fillColor=none;align=left;verticalAlign=middle;whiteSpace=wrap;rounded=0;shadow=0;glass=0;sketch=0;" vertex="1" parent="1">
                    <mxGeometry x="455" y="420" width="130" height="30" as="geometry"/>
                </mxCell>
                <mxCell id="61" value="dockScooter(&lt;font style=&quot;font-size: 10px;&quot;&gt;scooter: &lt;font style=&quot;font-size: 10px;&quot; color=&quot;#007fff&quot;&gt;string&lt;/font&gt;,&lt;/font&gt; s&lt;font style=&quot;font-size: 10px;&quot;&gt;tation: &lt;font style=&quot;font-size: 10px;&quot; color=&quot;#007fff&quot;&gt;string&lt;/font&gt;&lt;/font&gt;)" style="text;html=1;strokeColor=none;fillColor=none;align=left;verticalAlign=middle;whiteSpace=wrap;rounded=0;shadow=0;glass=0;sketch=0;" vertex="1" parent="1">
                    <mxGeometry x="455" y="450" width="130" height="30" as="geometry"/>
                </mxCell>
                <mxCell id="62" value="rentScooter(&lt;font style=&quot;font-size: 10px;&quot;&gt;scooter: &lt;font style=&quot;font-size: 10px;&quot; color=&quot;#007fff&quot;&gt;string&lt;/font&gt;,&lt;/font&gt;&amp;nbsp;&lt;font style=&quot;font-size: 10px;&quot;&gt;user: User&lt;/font&gt;)" style="text;html=1;strokeColor=none;fillColor=none;align=left;verticalAlign=middle;whiteSpace=wrap;rounded=0;shadow=0;glass=0;sketch=0;" vertex="1" parent="1">
                    <mxGeometry x="455" y="480" width="130" height="30" as="geometry"/>
                </mxCell>
                <mxCell id="63" value="print()" style="text;html=1;strokeColor=none;fillColor=none;align=left;verticalAlign=middle;whiteSpace=wrap;rounded=0;shadow=0;glass=0;sketch=0;" vertex="1" parent="1">
                    <mxGeometry x="455" y="510" width="130" height="30" as="geometry"/>
                </mxCell>
            </root>
        </mxGraphModel>
    </diagram>
</mxfile>